<mxfile host="app.diagrams.net" modified="2022-11-04T09:50:01.322Z" agent="5.0 (Windows NT 10.0; Win64; x64) AppleWebKit/537.36 (KHTML, like Gecko) Chrome/107.0.0.0 Safari/537.36" etag="e4JyNWOWfi2Wncmc4KfE" version="20.3.6" type="github">
  <diagram id="QycHmyGR_p74RsCH7QnW" name="第 1 页">
    <mxGraphModel dx="1385" dy="794" grid="1" gridSize="10" guides="1" tooltips="1" connect="1" arrows="1" fold="1" page="1" pageScale="1" pageWidth="1050" pageHeight="1500" math="0" shadow="0">
      <root>
        <mxCell id="0" />
        <mxCell id="1" parent="0" />
        <mxCell id="jem7c5btDTgbE0Fb3J0T-2" value="" style="rounded=0;whiteSpace=wrap;html=1;" vertex="1" parent="1">
          <mxGeometry x="210" y="230" width="130" height="400" as="geometry" />
        </mxCell>
        <mxCell id="jem7c5btDTgbE0Fb3J0T-3" value="输入" style="text;html=1;align=center;verticalAlign=middle;resizable=0;points=[];autosize=1;strokeColor=none;fillColor=none;" vertex="1" parent="1">
          <mxGeometry x="245" y="195" width="50" height="30" as="geometry" />
        </mxCell>
        <mxCell id="jem7c5btDTgbE0Fb3J0T-4" value="" style="rounded=0;whiteSpace=wrap;html=1;" vertex="1" parent="1">
          <mxGeometry x="420" y="230" width="130" height="400" as="geometry" />
        </mxCell>
        <mxCell id="jem7c5btDTgbE0Fb3J0T-5" value="处理" style="text;html=1;align=center;verticalAlign=middle;resizable=0;points=[];autosize=1;strokeColor=none;fillColor=none;" vertex="1" parent="1">
          <mxGeometry x="455" y="195" width="50" height="30" as="geometry" />
        </mxCell>
        <mxCell id="jem7c5btDTgbE0Fb3J0T-6" value="" style="rounded=0;whiteSpace=wrap;html=1;" vertex="1" parent="1">
          <mxGeometry x="650" y="230" width="130" height="400" as="geometry" />
        </mxCell>
        <mxCell id="jem7c5btDTgbE0Fb3J0T-7" value="输出" style="text;html=1;align=center;verticalAlign=middle;resizable=0;points=[];autosize=1;strokeColor=none;fillColor=none;" vertex="1" parent="1">
          <mxGeometry x="685" y="195" width="50" height="30" as="geometry" />
        </mxCell>
      </root>
    </mxGraphModel>
  </diagram>
</mxfile>
